<svg width="1363" height="163" viewBox="0 0 1363 163" fill="none" xmlns="http://www.w3.org/2000/svg">
<path d="M0 15C0 6.71573 6.71573 0 15 0H37V163H15C6.71573 163 0 156.284 0 148V15Z" fill="#424242"/>
<rect width="1097" height="163" transform="translate(37)" fill="#F0F0F0"/>
<path d="M101.906 53.9219L94.3945 51.2383V48.0859L104.602 52.375V54.6367L101.906 53.9219ZM94.3945 56.1719L101.918 53.4297L104.602 52.7852V55.0352L94.3945 59.3242V56.1719ZM116.25 48.3203V61H112.863V48.3203H116.25ZM112.652 45.0156C112.652 44.5234 112.824 44.1172 113.168 43.7969C113.512 43.4766 113.973 43.3164 114.551 43.3164C115.121 43.3164 115.578 43.4766 115.922 43.7969C116.273 44.1172 116.449 44.5234 116.449 45.0156C116.449 45.5078 116.273 45.9141 115.922 46.2344C115.578 46.5547 115.121 46.7148 114.551 46.7148C113.973 46.7148 113.512 46.5547 113.168 46.2344C112.824 45.9141 112.652 45.5078 112.652 45.0156ZM125.93 53.5117H121.547L121.523 51.0977H125.203C125.852 51.0977 126.383 51.0156 126.797 50.8516C127.211 50.6797 127.52 50.4336 127.723 50.1133C127.934 49.7852 128.039 49.3867 128.039 48.918C128.039 48.3867 127.938 47.957 127.734 47.6289C127.539 47.3008 127.23 47.0625 126.809 46.9141C126.395 46.7656 125.859 46.6914 125.203 46.6914H122.766V61H119.25V43.9375H125.203C126.195 43.9375 127.082 44.0312 127.863 44.2188C128.652 44.4062 129.32 44.6914 129.867 45.0742C130.414 45.457 130.832 45.9414 131.121 46.5273C131.41 47.1055 131.555 47.793 131.555 48.5898C131.555 49.293 131.395 49.9414 131.074 50.5352C130.762 51.1289 130.266 51.6133 129.586 51.9883C128.914 52.3633 128.035 52.5703 126.949 52.6094L125.93 53.5117ZM125.777 61H120.586L121.957 58.2578H125.777C126.395 58.2578 126.898 58.1602 127.289 57.9648C127.68 57.7617 127.969 57.4883 128.156 57.1445C128.344 56.8008 128.438 56.4062 128.438 55.9609C128.438 55.4609 128.352 55.0273 128.18 54.6602C128.016 54.293 127.75 54.0117 127.383 53.8164C127.016 53.6133 126.531 53.5117 125.93 53.5117H122.543L122.566 51.0977H126.785L127.594 52.0469C128.633 52.0312 129.469 52.2148 130.102 52.5977C130.742 52.9727 131.207 53.4609 131.496 54.0625C131.793 54.6641 131.941 55.3086 131.941 55.9961C131.941 57.0898 131.703 58.0117 131.227 58.7617C130.75 59.5039 130.051 60.0625 129.129 60.4375C128.215 60.8125 127.098 61 125.777 61ZM141.867 57.9648V48.3203H145.242V61H142.066L141.867 57.9648ZM142.242 55.3633L143.238 55.3398C143.238 56.1836 143.141 56.9688 142.945 57.6953C142.75 58.4141 142.457 59.0391 142.066 59.5703C141.676 60.0938 141.184 60.5039 140.59 60.8008C139.996 61.0898 139.297 61.2344 138.492 61.2344C137.875 61.2344 137.305 61.1484 136.781 60.9766C136.266 60.7969 135.82 60.5195 135.445 60.1445C135.078 59.7617 134.789 59.2734 134.578 58.6797C134.375 58.0781 134.273 57.3555 134.273 56.5117V48.3203H137.648V56.5352C137.648 56.9102 137.691 57.2266 137.777 57.4844C137.871 57.7422 138 57.9531 138.164 58.1172C138.328 58.2812 138.52 58.3984 138.738 58.4688C138.965 58.5391 139.215 58.5742 139.488 58.5742C140.184 58.5742 140.73 58.4336 141.129 58.1523C141.535 57.8711 141.82 57.4883 141.984 57.0039C142.156 56.5117 142.242 55.9648 142.242 55.3633ZM154.676 57.4961C154.676 57.2539 154.605 57.0352 154.465 56.8398C154.324 56.6445 154.062 56.4648 153.68 56.3008C153.305 56.1289 152.762 55.9727 152.051 55.832C151.41 55.6914 150.812 55.5156 150.258 55.3047C149.711 55.0859 149.234 54.8242 148.828 54.5195C148.43 54.2148 148.117 53.8555 147.891 53.4414C147.664 53.0195 147.551 52.5391 147.551 52C147.551 51.4688 147.664 50.9688 147.891 50.5C148.125 50.0312 148.457 49.6172 148.887 49.2578C149.324 48.8906 149.855 48.6055 150.48 48.4023C151.113 48.1914 151.824 48.0859 152.613 48.0859C153.715 48.0859 154.66 48.2617 155.449 48.6133C156.246 48.9648 156.855 49.4492 157.277 50.0664C157.707 50.6758 157.922 51.3711 157.922 52.1523H154.547C154.547 51.8242 154.477 51.5312 154.336 51.2734C154.203 51.0078 153.992 50.8008 153.703 50.6523C153.422 50.4961 153.055 50.418 152.602 50.418C152.227 50.418 151.902 50.4844 151.629 50.6172C151.355 50.7422 151.145 50.9141 150.996 51.1328C150.855 51.3438 150.785 51.5781 150.785 51.8359C150.785 52.0312 150.824 52.207 150.902 52.3633C150.988 52.5117 151.125 52.6484 151.312 52.7734C151.5 52.8984 151.742 53.0156 152.039 53.125C152.344 53.2266 152.719 53.3203 153.164 53.4062C154.078 53.5938 154.895 53.8398 155.613 54.1445C156.332 54.4414 156.902 54.8477 157.324 55.3633C157.746 55.8711 157.957 56.5391 157.957 57.3672C157.957 57.9297 157.832 58.4453 157.582 58.9141C157.332 59.3828 156.973 59.793 156.504 60.1445C156.035 60.4883 155.473 60.7578 154.816 60.9531C154.168 61.1406 153.438 61.2344 152.625 61.2344C151.445 61.2344 150.445 61.0234 149.625 60.6016C148.812 60.1797 148.195 59.6445 147.773 58.9961C147.359 58.3398 147.152 57.668 147.152 56.9805H150.352C150.367 57.4414 150.484 57.8125 150.703 58.0938C150.93 58.375 151.215 58.5781 151.559 58.7031C151.91 58.8281 152.289 58.8906 152.695 58.8906C153.133 58.8906 153.496 58.832 153.785 58.7148C154.074 58.5898 154.293 58.4258 154.441 58.2227C154.598 58.0117 154.676 57.7695 154.676 57.4961Z" fill="#888888"/>
<path d="M114.117 84.875H122.344V107.164C122.344 109.82 121.789 112.07 120.68 113.914C119.57 115.742 118.016 117.125 116.016 118.062C114.016 119 111.664 119.469 108.961 119.469C106.289 119.469 103.938 119 101.906 118.062C99.8906 117.125 98.3125 115.742 97.1719 113.914C96.0469 112.07 95.4844 109.82 95.4844 107.164V84.875H103.734V107.164C103.734 108.57 103.938 109.719 104.344 110.609C104.75 111.484 105.344 112.125 106.125 112.531C106.906 112.938 107.852 113.141 108.961 113.141C110.086 113.141 111.031 112.938 111.797 112.531C112.562 112.125 113.141 111.484 113.531 110.609C113.922 109.719 114.117 108.57 114.117 107.164V84.875ZM136.266 84.875V119H128.062V84.875H136.266ZM172.523 84.875H180.75V107.164C180.75 109.82 180.195 112.07 179.086 113.914C177.977 115.742 176.422 117.125 174.422 118.062C172.422 119 170.07 119.469 167.367 119.469C164.695 119.469 162.344 119 160.312 118.062C158.297 117.125 156.719 115.742 155.578 113.914C154.453 112.07 153.891 109.82 153.891 107.164V84.875H162.141V107.164C162.141 108.57 162.344 109.719 162.75 110.609C163.156 111.484 163.75 112.125 164.531 112.531C165.312 112.938 166.258 113.141 167.367 113.141C168.492 113.141 169.438 112.938 170.203 112.531C170.969 112.125 171.547 111.484 171.938 110.609C172.328 109.719 172.523 108.57 172.523 107.164V84.875ZM193.078 84.875L198.656 96.2188L204.234 84.875H213.609L204.094 101.797L213.867 119H204.398L198.656 107.445L192.914 119H183.422L193.219 101.797L183.68 84.875H193.078Z" fill="black"/>
<path d="M1134 0H1348C1356.28 0 1363 6.71573 1363 15V148C1363 156.284 1356.28 163 1348 163H1134V0Z" fill="#50B92A"/>
<path d="M1248.5 111.917C1244.51 111.917 1240.55 111.13 1236.86 109.601C1233.17 108.073 1229.82 105.832 1226.99 103.008C1221.29 97.3036 1218.08 89.567 1218.08 81.5C1218.08 73.433 1221.29 65.6964 1226.99 59.9922C1232.7 54.2879 1240.43 51.0833 1248.5 51.0833C1265.23 51.0833 1278.92 63.25 1278.92 78.4583C1278.92 83.2985 1276.99 87.9405 1273.57 91.363C1270.15 94.7856 1265.51 96.7083 1260.67 96.7083H1255.19C1254.28 96.7083 1253.67 97.3167 1253.67 98.2292C1253.67 98.5333 1253.97 98.8375 1253.97 99.1417C1255.19 100.662 1255.8 102.487 1255.8 104.312C1256.1 108.571 1252.76 111.917 1248.5 111.917ZM1248.5 57.1667C1242.05 57.1667 1235.86 59.7303 1231.29 64.2937C1226.73 68.8571 1224.17 75.0464 1224.17 81.5C1224.17 87.9536 1226.73 94.1429 1231.29 98.7063C1235.86 103.27 1242.05 105.833 1248.5 105.833C1249.41 105.833 1250.02 105.225 1250.02 104.312C1250.02 103.704 1249.72 103.4 1249.72 103.096C1248.5 101.575 1247.89 100.054 1247.89 98.2292C1247.89 93.9708 1251.24 90.625 1255.5 90.625H1260.67C1263.89 90.625 1266.99 89.3432 1269.27 87.0615C1271.55 84.7798 1272.83 81.6851 1272.83 78.4583C1272.83 66.5958 1261.88 57.1667 1248.5 57.1667ZM1231.77 75.4167C1234.2 75.4167 1236.33 77.5458 1236.33 79.9792C1236.33 82.4125 1234.2 84.5417 1231.77 84.5417C1229.34 84.5417 1227.21 82.4125 1227.21 79.9792C1227.21 77.5458 1229.34 75.4167 1231.77 75.4167ZM1240.9 63.25C1243.33 63.25 1245.46 65.3792 1245.46 67.8125C1245.46 70.2458 1243.33 72.375 1240.9 72.375C1238.46 72.375 1236.33 70.2458 1236.33 67.8125C1236.33 65.3792 1238.46 63.25 1240.9 63.25ZM1256.1 63.25C1258.54 63.25 1260.67 65.3792 1260.67 67.8125C1260.67 70.2458 1258.54 72.375 1256.1 72.375C1253.67 72.375 1251.54 70.2458 1251.54 67.8125C1251.54 65.3792 1253.67 63.25 1256.1 63.25ZM1265.23 75.4167C1267.66 75.4167 1269.79 77.5458 1269.79 79.9792C1269.79 82.4125 1267.66 84.5417 1265.23 84.5417C1262.8 84.5417 1260.67 82.4125 1260.67 79.9792C1260.67 77.5458 1262.8 75.4167 1265.23 75.4167Z" fill="white"/>
</svg>
